<svg xmlns="http://www.w3.org/2000/svg" viewBox="0 0 292.04 104.5"><defs><style>.cls-1{fill:#282424;}.cls-2{fill:#f4712f;}</style></defs><g id="Layer_2" data-name="Layer 2"><g id="Layer_3" data-name="Layer 3"><path class="cls-1" d="M178.06,51.81l17-25h19.49l-19.07,25L215.92,80H196.23L178.06,51.81"/><path class="cls-1" d="M39.28,13.82a16.59,16.59,0,0,0-6.08-1.24q-7.89,0-7.89,8.57v5.66H37.47V38.92H25.31V80H8.94V38.92H0V26.81H8.94v-6.6q0-9.09,5.92-14.65T31,0a28.3,28.3,0,0,1,8.31,1Z"/><path class="cls-1" d="M62,73.84h-.21V104.5H45.36V26.81H61.78v8H62a19.29,19.29,0,0,1,17.1-9.31q10.34,0,16,7.1t5.63,19.3q0,13.31-6.57,21.36t-17.48,8Q67,81.32,62,73.84ZM61.52,52v4.26a13.57,13.57,0,0,0,2.91,9,9.48,9.48,0,0,0,7.64,3.48,10.1,10.1,0,0,0,8.71-4.34q3.09-4.33,3.09-12.29,0-14-10.91-14a10.24,10.24,0,0,0-8.24,3.82Q61.53,45.72,61.52,52Z"/><path class="cls-1" d="M151.68,78.1q-5.56,3.23-16.06,3.22-12.25,0-19.85-7.43t-7.58-19.17q0-13.56,8.13-21.39t21.75-7.82q9.39,0,13.61,2.5V41.93a18.74,18.74,0,0,0-11.48-3.84q-7.08,0-11.2,4.13t-4.13,11.41q0,7.07,3.95,11.09t10.86,4a21.65,21.65,0,0,0,12-3.85Z"/><path class="cls-1" d="M179.06,53.63,178.86,80H162.44V1.25h16.42l.2,52.38Z"/><path class="cls-2" d="M292,51.85,274,80H254.33l20.34-28.1-19-24.9h19.41l17,24.9"/><path class="cls-2" d="M232.92,80H222.41l16.22-52.6,10.51,0"/></g></g></svg>